<svg width="48" height="48" viewBox="0 0 48 48" fill="none" xmlns="http://www.w3.org/2000/svg">
<circle cx="24" cy="24" r="24" fill="#FEE500"/>
<path d="M24.0697 11.5831C16.6028 11.5831 10.5811 16.4004 10.5811 22.2486C10.5811 26.0447 13.0861 29.3687 16.8436 31.2667L15.5718 36.0167C15.5479 36.0879 15.5442 36.1643 15.5612 36.2374C15.5782 36.3106 15.6152 36.3776 15.6682 36.4309C15.7454 36.499 15.8447 36.5366 15.9476 36.5369C16.0329 36.53 16.1139 36.4963 16.1788 36.4406L21.6513 32.7505C22.4592 32.862 23.2735 32.9199 24.0889 32.9239C31.5462 32.9239 37.5775 28.1065 37.5775 22.2486C37.5775 16.3907 31.5269 11.5831 24.0697 11.5831Z" fill="#392020"/>
</svg>
